<svg width="42" height="21" viewBox="0 0 42 21" fill="none" xmlns="http://www.w3.org/2000/svg">
<path d="M0 0H42V21H0V0Z" fill="#B8B8B8"/>
<path d="M40 0H41V21H40V0Z" fill="#00FF2B"/>
<path d="M41 0H42V21H41V0Z" fill="#FF0000"/>
<path d="M1 0H2V21H1V0Z" fill="#00FF2B"/>
<path d="M0 0H1V21H0V0Z" fill="#FF0000"/>
<path d="M13 14L4 21H38L29 14H13Z" fill="black"/>
<path d="M13 7L4 0H38L29 7H13Z" fill="black"/>
<path d="M1.31454 1H1.14977L1.40083 0.272727H1.59899L1.8497 1H1.68493L1.50275 0.43892H1.49707L1.31454 1ZM1.30424 0.714134H1.69345V0.834162H1.30424V0.714134Z" fill="black"/>
<path d="M41.3145 1H41.1498L41.4008 0.272727H41.599L41.8497 1H41.6849L41.5028 0.43892H41.4971L41.3145 1ZM41.3042 0.714134H41.6934V0.834162H41.3042V0.714134Z" fill="black"/>
<path d="M0.232644 21V20.2727H0.523837C0.577341 20.2727 0.621967 20.2807 0.657715 20.2965C0.693463 20.3124 0.720333 20.3344 0.738326 20.3626C0.756318 20.3905 0.765314 20.4227 0.765314 20.4592C0.765314 20.4876 0.759632 20.5125 0.748269 20.5341C0.736905 20.5554 0.72128 20.5729 0.701394 20.5866C0.681744 20.6001 0.659254 20.6097 0.633922 20.6154V20.6225C0.661621 20.6237 0.687544 20.6315 0.711692 20.646C0.736077 20.6604 0.755845 20.6806 0.770996 20.7067C0.786148 20.7325 0.793723 20.7633 0.793723 20.799C0.793723 20.8376 0.784135 20.872 0.764959 20.9023C0.74602 20.9324 0.717966 20.9562 0.680797 20.9737C0.643629 20.9912 0.597819 21 0.543368 21H0.232644ZM0.386408 20.8743H0.511763C0.554614 20.8743 0.585864 20.8661 0.605513 20.8498C0.625163 20.8332 0.634988 20.8112 0.634988 20.7837C0.634988 20.7636 0.630134 20.7459 0.620428 20.7305C0.610722 20.7151 0.596872 20.703 0.57888 20.6942C0.561124 20.6855 0.539935 20.6811 0.515314 20.6811H0.386408V20.8743ZM0.386408 20.5771H0.500399C0.52147 20.5771 0.540172 20.5734 0.556507 20.5661C0.573079 20.5585 0.5861 20.5478 0.59557 20.5341C0.605276 20.5204 0.61013 20.5039 0.61013 20.4847C0.61013 20.4585 0.600778 20.4373 0.582076 20.4212C0.56361 20.4051 0.537331 20.397 0.50324 20.397H0.386408V20.5771Z" fill="black"/>
<path d="M40.2326 21V20.2727H40.5238C40.5773 20.2727 40.622 20.2807 40.6577 20.2965C40.6935 20.3124 40.7203 20.3344 40.7383 20.3626C40.7563 20.3905 40.7653 20.4227 40.7653 20.4592C40.7653 20.4876 40.7596 20.5125 40.7483 20.5341C40.7369 20.5554 40.7213 20.5729 40.7014 20.5866C40.6817 20.6001 40.6593 20.6097 40.6339 20.6154V20.6225C40.6616 20.6237 40.6875 20.6315 40.7117 20.646C40.7361 20.6604 40.7558 20.6806 40.771 20.7067C40.7861 20.7325 40.7937 20.7633 40.7937 20.799C40.7937 20.8376 40.7841 20.872 40.765 20.9023C40.746 20.9324 40.718 20.9562 40.6808 20.9737C40.6436 20.9912 40.5978 21 40.5434 21H40.2326ZM40.3864 20.8743H40.5118C40.5546 20.8743 40.5859 20.8661 40.6055 20.8498C40.6252 20.8332 40.635 20.8112 40.635 20.7837C40.635 20.7636 40.6301 20.7459 40.6204 20.7305C40.6107 20.7151 40.5969 20.703 40.5789 20.6942C40.5611 20.6855 40.5399 20.6811 40.5153 20.6811H40.3864V20.8743ZM40.3864 20.5771H40.5004C40.5215 20.5771 40.5402 20.5734 40.5565 20.5661C40.5731 20.5585 40.5861 20.5478 40.5956 20.5341C40.6053 20.5204 40.6101 20.5039 40.6101 20.4847C40.6101 20.4585 40.6008 20.4373 40.5821 20.4212C40.5636 20.4051 40.5373 20.397 40.5032 20.397H40.3864V20.5771Z" fill="black"/>
</svg>
