<svg width="42" height="21" viewBox="0 0 42 21" fill="none" xmlns="http://www.w3.org/2000/svg">
<path d="M0 0H42V21H0V0Z" fill="#B8B8B8"/>
<path d="M0 0H42V21H0V0Z" fill="#B8B8B8"/>
<path d="M40 0H41V21H40V0Z" fill="#4AFF68"/>
<path d="M41 0H42V21H41V0Z" fill="#FF7B7B"/>
<path d="M1 0H2V21H1V0Z" fill="#4AFF68"/>
<path d="M0 0H1V21H0V0Z" fill="#FF7B7B"/>
<path d="M13 14L4 21H38L29 14H13Z" fill="black"/>
<path d="M13 7L4 0H38L29 7H13Z" fill="black"/>
<path d="M1.31454 11H1.14977L1.40083 10.2727H1.59899L1.8497 11H1.68493L1.50275 10.4389H1.49707L1.31454 11ZM1.30424 10.7141H1.69345V10.8342H1.30424V10.7141Z" fill="black"/>
<path d="M41.3145 11H41.1498L41.4008 10.2727H41.599L41.8497 11H41.6849L41.5028 10.4389H41.4971L41.3145 11ZM41.3042 10.7141H41.6934V10.8342H41.3042V10.7141Z" fill="black"/>
<path d="M0.232644 11V10.2727H0.523837C0.577341 10.2727 0.621967 10.2807 0.657715 10.2965C0.693463 10.3124 0.720333 10.3344 0.738326 10.3626C0.756318 10.3905 0.765314 10.4227 0.765314 10.4592C0.765314 10.4876 0.759632 10.5125 0.748269 10.5341C0.736905 10.5554 0.72128 10.5729 0.701394 10.5866C0.681744 10.6001 0.659254 10.6097 0.633922 10.6154V10.6225C0.661621 10.6237 0.687544 10.6315 0.711692 10.646C0.736077 10.6604 0.755845 10.6806 0.770996 10.7067C0.786148 10.7325 0.793723 10.7633 0.793723 10.799C0.793723 10.8376 0.784135 10.872 0.764959 10.9023C0.74602 10.9324 0.717966 10.9562 0.680797 10.9737C0.643629 10.9912 0.597819 11 0.543368 11H0.232644ZM0.386408 10.8743H0.511763C0.554614 10.8743 0.585864 10.8661 0.605513 10.8498C0.625163 10.8332 0.634988 10.8112 0.634988 10.7837C0.634988 10.7636 0.630134 10.7459 0.620428 10.7305C0.610722 10.7151 0.596872 10.703 0.57888 10.6942C0.561124 10.6855 0.539935 10.6811 0.515314 10.6811H0.386408V10.8743ZM0.386408 10.5771H0.500399C0.52147 10.5771 0.540172 10.5734 0.556507 10.5661C0.573079 10.5585 0.5861 10.5478 0.59557 10.5341C0.605276 10.5204 0.61013 10.5039 0.61013 10.4847C0.61013 10.4585 0.600778 10.4373 0.582076 10.4212C0.56361 10.4051 0.537331 10.397 0.50324 10.397H0.386408V10.5771Z" fill="black"/>
<path d="M40.2326 11V10.2727H40.5238C40.5773 10.2727 40.622 10.2807 40.6577 10.2965C40.6935 10.3124 40.7203 10.3344 40.7383 10.3626C40.7563 10.3905 40.7653 10.4227 40.7653 10.4592C40.7653 10.4876 40.7596 10.5125 40.7483 10.5341C40.7369 10.5554 40.7213 10.5729 40.7014 10.5866C40.6817 10.6001 40.6593 10.6097 40.6339 10.6154V10.6225C40.6616 10.6237 40.6875 10.6315 40.7117 10.646C40.7361 10.6604 40.7558 10.6806 40.771 10.7067C40.7861 10.7325 40.7937 10.7633 40.7937 10.799C40.7937 10.8376 40.7841 10.872 40.765 10.9023C40.746 10.9324 40.718 10.9562 40.6808 10.9737C40.6436 10.9912 40.5978 11 40.5434 11H40.2326ZM40.3864 10.8743H40.5118C40.5546 10.8743 40.5859 10.8661 40.6055 10.8498C40.6252 10.8332 40.635 10.8112 40.635 10.7837C40.635 10.7636 40.6301 10.7459 40.6204 10.7305C40.6107 10.7151 40.5969 10.703 40.5789 10.6942C40.5611 10.6855 40.5399 10.6811 40.5153 10.6811H40.3864V10.8743ZM40.3864 10.5771H40.5004C40.5215 10.5771 40.5402 10.5734 40.5565 10.5661C40.5731 10.5585 40.5861 10.5478 40.5956 10.5341C40.6053 10.5204 40.6101 10.5039 40.6101 10.4847C40.6101 10.4585 40.6008 10.4373 40.5821 10.4212C40.5636 10.4051 40.5373 10.397 40.5032 10.397H40.3864V10.5771Z" fill="black"/>
<path d="M15.4492 20.2937V20.1829L15.7081 19.9432C15.7301 19.9219 15.7486 19.9027 15.7635 19.8857C15.7787 19.8686 15.7901 19.8519 15.798 19.8356C15.8058 19.819 15.8097 19.8012 15.8097 19.782C15.8097 19.7607 15.8048 19.7423 15.7951 19.7269C15.7854 19.7113 15.7722 19.6994 15.7553 19.6911C15.7385 19.6825 15.7195 19.6783 15.6982 19.6783C15.6759 19.6783 15.6565 19.6828 15.6399 19.6918C15.6234 19.7008 15.6106 19.7137 15.6016 19.7305C15.5926 19.7473 15.5881 19.7673 15.5881 19.7905H15.4421C15.4421 19.7429 15.4529 19.7016 15.4744 19.6666C15.496 19.6315 15.5262 19.6044 15.565 19.5852C15.6038 19.5661 15.6486 19.5565 15.6992 19.5565C15.7513 19.5565 15.7967 19.5657 15.8352 19.5842C15.8741 19.6024 15.9043 19.6277 15.9258 19.6602C15.9473 19.6926 15.9581 19.7298 15.9581 19.7717C15.9581 19.7991 15.9527 19.8263 15.9418 19.853C15.9311 19.8798 15.9121 19.9095 15.8846 19.9421C15.8571 19.9746 15.8184 20.0135 15.7685 20.059L15.6623 20.163V20.168H15.9677V20.2937H15.4492Z" fill="black"/>
<path d="M16.3447 20.3036C16.2946 20.3036 16.2498 20.2944 16.2105 20.2759C16.1714 20.2575 16.1404 20.232 16.1175 20.1996C16.0945 20.1672 16.0825 20.13 16.0816 20.0881H16.2308C16.2324 20.1163 16.2442 20.1391 16.2663 20.1566C16.2883 20.1741 16.3144 20.1829 16.3447 20.1829C16.3689 20.1829 16.3902 20.1776 16.4087 20.1669C16.4274 20.156 16.4419 20.141 16.4523 20.1218C16.463 20.1024 16.4683 20.0802 16.4683 20.0551C16.4683 20.0295 16.4629 20.007 16.452 19.9876C16.4413 19.9682 16.4265 19.953 16.4076 19.9421C16.3887 19.9312 16.367 19.9257 16.3426 19.9254C16.3213 19.9254 16.3006 19.9298 16.2805 19.9386C16.2606 19.9473 16.2451 19.9593 16.2339 19.9745L16.0972 19.95L16.1317 19.5664H16.5763V19.6921H16.2584L16.2396 19.8743H16.2439C16.2567 19.8563 16.276 19.8414 16.3018 19.8296C16.3276 19.8177 16.3565 19.8118 16.3884 19.8118C16.4322 19.8118 16.4713 19.8221 16.5056 19.8427C16.5399 19.8633 16.567 19.8916 16.5869 19.9276C16.6068 19.9633 16.6166 20.0045 16.6164 20.0512C16.6166 20.1002 16.6053 20.1437 16.5823 20.1818C16.5596 20.2197 16.5277 20.2495 16.4868 20.2713C16.4461 20.2929 16.3987 20.3036 16.3447 20.3036Z" fill="black"/>
<path d="M31.2876 20.1921C31.2266 20.1919 31.174 20.1768 31.13 20.147C31.0862 20.1172 31.0524 20.074 31.0288 20.0174C31.0053 19.9608 30.9937 19.8927 30.994 19.8132C30.994 19.7339 31.0057 19.6663 31.0291 19.6104C31.0528 19.5545 31.0865 19.5121 31.1303 19.4829C31.1744 19.4536 31.2268 19.4389 31.2876 19.4389C31.3485 19.4389 31.4008 19.4536 31.4446 19.4829C31.4886 19.5123 31.5225 19.5549 31.5462 19.6108C31.5698 19.6664 31.5816 19.7339 31.5813 19.8132C31.5813 19.893 31.5695 19.9612 31.5458 20.0177C31.5224 20.0743 31.4887 20.1175 31.445 20.1474C31.4012 20.1772 31.3487 20.1921 31.2876 20.1921ZM31.2876 20.0646C31.3293 20.0646 31.3626 20.0437 31.3874 20.0018C31.4123 19.9599 31.4246 19.897 31.4244 19.8132C31.4244 19.758 31.4187 19.7121 31.4073 19.6754C31.3962 19.6387 31.3803 19.6111 31.3597 19.5927C31.3394 19.5742 31.3153 19.565 31.2876 19.565C31.2462 19.565 31.2131 19.5857 31.1882 19.6271C31.1633 19.6685 31.1508 19.7306 31.1506 19.8132C31.1506 19.8691 31.1561 19.9157 31.1673 19.9531C31.1786 19.9903 31.1946 20.0182 31.2152 20.0369C31.2358 20.0554 31.2599 20.0646 31.2876 20.0646Z" fill="black"/>
<path d="M32.089 20.0398V20.0014C32.089 19.9723 32.0952 19.9455 32.1075 19.9211C32.1201 19.8965 32.1382 19.8769 32.1618 19.8622C32.1857 19.8473 32.2149 19.8398 32.2492 19.8398C32.284 19.8398 32.3132 19.8472 32.3369 19.8618C32.3608 19.8765 32.3788 19.8962 32.3909 19.9208C32.4032 19.9452 32.4094 19.972 32.4094 20.0014V20.0398C32.4094 20.0689 32.4032 20.0957 32.3909 20.1204C32.3786 20.1447 32.3605 20.1643 32.3366 20.179C32.3126 20.1939 32.2835 20.2013 32.2492 20.2013C32.2144 20.2013 32.1852 20.1939 32.1615 20.179C32.1378 20.1643 32.1198 20.1447 32.1075 20.1204C32.0952 20.0957 32.089 20.0689 32.089 20.0398ZM32.1924 20.0014V20.0398C32.1924 20.0566 32.1964 20.0724 32.2045 20.0873C32.2127 20.1023 32.2277 20.1097 32.2492 20.1097C32.2707 20.1097 32.2854 20.1024 32.2932 20.0877C32.3013 20.073 32.3053 20.057 32.3053 20.0398V20.0014C32.3053 19.9841 32.3015 19.968 32.2939 19.9531C32.2864 19.9382 32.2714 19.9307 32.2492 19.9307C32.2279 19.9307 32.2131 19.9382 32.2048 19.9531C32.1965 19.968 32.1924 19.9841 32.1924 20.0014ZM31.7158 19.6236V19.5852C31.7158 19.5559 31.7221 19.529 31.7346 19.5046C31.7472 19.48 31.7653 19.4603 31.789 19.4456C31.8129 19.431 31.8418 19.4236 31.8756 19.4236C31.9107 19.4236 31.94 19.431 31.9637 19.4456C31.9874 19.4603 32.0054 19.48 32.0177 19.5046C32.03 19.529 32.0361 19.5559 32.0361 19.5852V19.6236C32.0361 19.6529 32.0299 19.6798 32.0173 19.7042C32.005 19.7286 31.9869 19.7481 31.963 19.7628C31.9393 19.7772 31.9102 19.7844 31.8756 19.7844C31.8411 19.7844 31.8118 19.7771 31.7879 19.7624C31.7642 19.7475 31.7462 19.728 31.7339 19.7038C31.7219 19.6794 31.7158 19.6527 31.7158 19.6236ZM31.8199 19.5852V19.6236C31.8199 19.6408 31.8239 19.6568 31.8319 19.6715C31.8402 19.6862 31.8548 19.6935 31.8756 19.6935C31.8974 19.6935 31.9122 19.6862 31.92 19.6715C31.9281 19.6568 31.9321 19.6408 31.9321 19.6236V19.5852C31.9321 19.5679 31.9283 19.5518 31.9207 19.5369C31.9131 19.522 31.8981 19.5145 31.8756 19.5145C31.8545 19.5145 31.84 19.5221 31.8319 19.5373C31.8239 19.5524 31.8199 19.5684 31.8199 19.5852ZM31.7627 20.1761L32.2627 19.4488H32.3557L31.8557 20.1761H31.7627Z" fill="black"/>
<path d="M16.8328 16.2744C16.7717 16.2741 16.7191 16.2591 16.6751 16.2293C16.6313 16.1994 16.5976 16.1562 16.5739 16.0997C16.5504 16.0431 16.5388 15.975 16.5391 15.8955C16.5391 15.8162 16.5508 15.7486 16.5742 15.6927C16.5979 15.6368 16.6317 15.5943 16.6754 15.5652C16.7195 15.5359 16.7719 15.5212 16.8328 15.5212C16.8936 15.5212 16.9459 15.5359 16.9897 15.5652C17.0338 15.5946 17.0676 15.6372 17.0913 15.6931C17.115 15.7487 17.1267 15.8162 17.1264 15.8955C17.1264 15.9752 17.1146 16.0434 17.0909 16.1C17.0675 16.1566 17.0339 16.1998 16.9901 16.2296C16.9463 16.2595 16.8938 16.2744 16.8328 16.2744ZM16.8328 16.1469C16.8744 16.1469 16.9077 16.1259 16.9326 16.084C16.9574 16.0421 16.9697 15.9793 16.9695 15.8955C16.9695 15.8403 16.9638 15.7944 16.9524 15.7577C16.9413 15.721 16.9254 15.6934 16.9049 15.6749C16.8845 15.6565 16.8605 15.6472 16.8328 15.6472C16.7913 15.6472 16.7582 15.668 16.7333 15.7094C16.7085 15.7508 16.6959 15.8128 16.6957 15.8955C16.6957 15.9513 16.7013 15.998 16.7124 16.0354C16.7237 16.0725 16.7397 16.1005 16.7603 16.1192C16.7809 16.1377 16.8051 16.1469 16.8328 16.1469Z" fill="black"/>
<path d="M17.2966 16.2676C17.2732 16.2676 17.2531 16.2593 17.2363 16.2428C17.2197 16.226 17.2114 16.2058 17.2114 16.1824C17.2114 16.1592 17.2197 16.1393 17.2363 16.1227C17.2531 16.1062 17.2732 16.0979 17.2966 16.0979C17.3194 16.0979 17.3392 16.1062 17.3563 16.1227C17.3733 16.1393 17.3819 16.1592 17.3819 16.1824C17.3819 16.198 17.3778 16.2123 17.3698 16.2254C17.362 16.2382 17.3517 16.2484 17.3389 16.2563C17.3261 16.2638 17.312 16.2676 17.2966 16.2676Z" fill="black"/>
<path d="M17.7644 16.2683C17.7142 16.2683 17.6695 16.2591 17.6302 16.2406C17.5911 16.2222 17.5601 16.1967 17.5371 16.1643C17.5142 16.1319 17.5022 16.0947 17.5013 16.0528H17.6504C17.6521 16.081 17.6639 16.1038 17.6859 16.1213C17.7079 16.1388 17.7341 16.1476 17.7644 16.1476C17.7886 16.1476 17.8099 16.1423 17.8283 16.1316C17.847 16.1207 17.8616 16.1057 17.872 16.0865C17.8827 16.0671 17.888 16.0449 17.888 16.0198C17.888 15.9942 17.8825 15.9717 17.8716 15.9523C17.861 15.9329 17.8462 15.9177 17.8273 15.9068C17.8083 15.8959 17.7867 15.8904 17.7623 15.8901C17.741 15.8901 17.7203 15.8945 17.7001 15.9033C17.6802 15.912 17.6647 15.924 17.6536 15.9391L17.5169 15.9146L17.5513 15.5311H17.9959V15.6568H17.6781L17.6593 15.839H17.6636C17.6763 15.821 17.6956 15.8061 17.7214 15.7943C17.7472 15.7824 17.7761 15.7765 17.8081 15.7765C17.8519 15.7765 17.8909 15.7868 17.9253 15.8074C17.9596 15.828 17.9867 15.8563 18.0066 15.8923C18.0265 15.928 18.0363 15.9692 18.0361 16.0159C18.0363 16.0649 18.0249 16.1084 18.002 16.1465C17.9792 16.1844 17.9474 16.2142 17.9065 16.236C17.8657 16.2576 17.8184 16.2683 17.7644 16.2683Z" fill="black"/>
<path d="M25.549 19.3735C25.488 19.3732 25.4354 19.3582 25.3914 19.3284C25.3476 19.2986 25.3138 19.2554 25.2902 19.1988C25.2667 19.1422 25.2551 19.0741 25.2554 18.9946C25.2554 18.9153 25.2671 18.8477 25.2905 18.7918C25.3142 18.7359 25.3479 18.6934 25.3917 18.6643C25.4358 18.635 25.4882 18.6203 25.549 18.6203C25.6099 18.6203 25.6622 18.635 25.706 18.6643C25.75 18.6937 25.7839 18.7363 25.8076 18.7922C25.8312 18.8478 25.8429 18.9153 25.8427 18.9946C25.8427 19.0744 25.8309 19.1425 25.8072 19.1991C25.7838 19.2557 25.7501 19.2989 25.7063 19.3287C25.6625 19.3586 25.6101 19.3735 25.549 19.3735ZM25.549 19.246C25.5907 19.246 25.624 19.225 25.6488 19.1831C25.6737 19.1412 25.686 19.0784 25.6857 18.9946C25.6857 18.9394 25.6801 18.8935 25.6687 18.8568C25.6576 18.8201 25.6417 18.7925 25.6211 18.7741C25.6008 18.7556 25.5767 18.7464 25.549 18.7464C25.5076 18.7464 25.4745 18.7671 25.4496 18.8085C25.4247 18.8499 25.4122 18.912 25.412 18.9946C25.412 19.0505 25.4175 19.0971 25.4286 19.1345C25.44 19.1717 25.456 19.1996 25.4766 19.2183C25.4972 19.2368 25.5213 19.246 25.549 19.246Z" fill="black"/>
<path d="M26.0129 19.3667C25.9895 19.3667 25.9693 19.3585 25.9525 19.3419C25.936 19.3251 25.9277 19.3049 25.9277 19.2815C25.9277 19.2583 25.936 19.2384 25.9525 19.2219C25.9693 19.2053 25.9895 19.197 26.0129 19.197C26.0356 19.197 26.0555 19.2053 26.0726 19.2219C26.0896 19.2384 26.0981 19.2583 26.0981 19.2815C26.0981 19.2971 26.0941 19.3115 26.0861 19.3245C26.0782 19.3373 26.0679 19.3476 26.0552 19.3554C26.0424 19.363 26.0283 19.3667 26.0129 19.3667Z" fill="black"/>
<path d="M26.4807 19.3674C26.4305 19.3674 26.3857 19.3582 26.3464 19.3398C26.3074 19.3213 26.2764 19.2958 26.2534 19.2634C26.2304 19.231 26.2185 19.1938 26.2175 19.1519H26.3667C26.3683 19.1801 26.3802 19.2029 26.4022 19.2204C26.4242 19.238 26.4504 19.2467 26.4807 19.2467C26.5048 19.2467 26.5261 19.2414 26.5446 19.2307C26.5633 19.2198 26.5779 19.2048 26.5883 19.1856C26.5989 19.1662 26.6042 19.144 26.6042 19.1189C26.6042 19.0933 26.5988 19.0708 26.5879 19.0514C26.5773 19.032 26.5625 19.0168 26.5435 19.0059C26.5246 18.9951 26.5029 18.9895 26.4785 18.9893C26.4572 18.9893 26.4365 18.9936 26.4164 19.0024C26.3965 19.0112 26.381 19.0231 26.3699 19.0383L26.2332 19.0138L26.2676 18.6302H26.7122V18.7559H26.3944L26.3756 18.9381H26.3798C26.3926 18.9201 26.4119 18.9052 26.4377 18.8934C26.4635 18.8815 26.4924 18.8756 26.5244 18.8756C26.5681 18.8756 26.6072 18.8859 26.6415 18.9065C26.6759 18.9271 26.703 18.9554 26.7229 18.9914C26.7427 19.0271 26.7526 19.0683 26.7523 19.115C26.7526 19.164 26.7412 19.2075 26.7182 19.2456C26.6955 19.2835 26.6637 19.3134 26.6227 19.3351C26.582 19.3567 26.5346 19.3674 26.4807 19.3674Z" fill="black"/>
</svg>
